<?xml version="1.0" encoding="UTF-8" standalone="no"?>
<!-- Created with Inkscape (http://www.inkscape.org/) -->

<svg
   version="1.1"
   id="svg2"
   width="441.11716"
   height="591.15796"
   viewBox="0 0 441.11716 591.15795"
   xml:space="preserve"
   xmlns="http://www.w3.org/2000/svg"
   xmlns:svg="http://www.w3.org/2000/svg"><defs
     id="defs6"><clipPath
       clipPathUnits="userSpaceOnUse"
       id="clipPath5274"><path
         d="M 0,446.385 H 330.84 V 0 H 0 Z"
         id="path5272" /></clipPath></defs><g
     id="g5266"
     transform="matrix(1.3333333,0,0,-1.3333333,-0.00140969,593.36624)"><g
       id="g5268"
       transform="matrix(1.000008,0,0,0.99057873,-0.00132723,9.1163696)"><g
         id="g5270"
         clip-path="url(#clipPath5274)"
         transform="matrix(0.99998559,0,0,1.0171197,0.00238448,-7.5311246)"><g
           id="g5276"
           transform="translate(307.1562,86.5226)"><path
             d="M -5.8004855,-6.6291264 C -45.908485,-86.894126 -166.05348,-112.87212 -233.65548,-65.567126 c -73.887,51.535 -118.576,172.289006 -12.068,258.836006 18.839,-3.434 34.493,-11.173 47.051,-21.311 36.475,-29.434 46.822,-79.064007 33.299,-101.914006 -13.021,10.479999 -30.581,19.835999 -30.581,19.835999 l 0.254,0.48 c 27.469,-2.531 23.973,30.341007 1.109,36.215007 -34.618,8.892 -87.973,-5.399 -89.878,-66.034006 v -0.184 c 0,-16.896 3.63,-32.944 10.15,-47.407 18.09,-40.114 58.43,-68.037 105.294,-68.037 62.428,0 113.277995,49.5469996 115.373995,111.465 0.047,1.321 0.07,2.648 0.07,3.979 0,57.900006 -42.621,105.840006 -98.198995,114.161006 -57.421,47.016 -114.904,107.358 4.827,174.052 23.105,-14.917 49.816995,-28.935 63.517995,-54.625 9.737,-19.916 8.6,-46.781 -4.446,-64.154 -41.269995,32.702 -29.185995,11.328 -14.268995,22.399 5.800995,4.305 8.614995,11.542 7.786995,18.718 -9.137995,79.194 -153.754995,31.537 -88.794995,-43.34 53.673,-47.638 134.536995,-29.116 134.657995,-29.218 96.547,-80.985 55.5689996,-181.979006 42.6999995,-204.9790064 z"
             style="fill:none;stroke:#ffffff;stroke-width:8;stroke-linecap:butt;stroke-linejoin:miter;stroke-miterlimit:10;stroke-dasharray:none;stroke-opacity:1"
             id="path5278" /><path
             d="m 2.0447204,-6.333082 c -40.1080004,-80.265 -160.2530004,-106.242998 -227.8550004,-58.938 -73.887,51.535 -118.576,172.289002 -12.068,258.836002 18.839,-3.434 34.493,-11.173 47.051,-21.311 36.475,-29.434 46.822,-79.064002 33.299,-101.914002 -13.021,10.48 -30.581,19.836 -30.581,19.836 l 0.254,0.48 c 27.469,-2.531 23.973,30.341002 1.109,36.215002 -34.618,8.892 -87.973,-5.399 -89.878,-66.034002 v -0.184 c 0,-16.896 3.63,-32.944 10.15,-47.407 18.09,-40.114 58.43,-68.037 105.294,-68.037 62.428,0 113.278,49.547 115.374,111.465 0.047,1.321 0.07,2.648 0.07,3.979 0,57.900002 -42.621,105.840002 -98.199,114.161002 -57.421,47.016 -114.904,107.358 4.827,174.052 23.105,-14.917 49.817,-28.935 63.518,-54.625 9.737,-19.916 8.6,-46.781 -4.446,-64.154 -41.27,32.702 -29.186,11.328 -14.269,22.399 5.801,4.305 8.615,11.542 7.787,18.718 -9.138,79.194 -153.755,31.537 -88.795,-43.34 53.673,-47.638 134.537,-29.116 134.658,-29.218 96.547,-80.985 55.569,-181.979002 42.7000004,-204.979002 z"
             style="fill:#ffffff;stroke:#6001d2;stroke-width:8;stroke-linecap:butt;stroke-linejoin:miter;stroke-miterlimit:10;stroke-dasharray:none;stroke-opacity:1"
             id="path5278-2" /></g></g></g></g></svg>
