<?xml version="1.0" encoding="UTF-8" standalone="no"?>
<svg
   version="1.1"
   width="2996.291"
   height="1140.0352"
   style="clip-rule:evenodd;fill-rule:evenodd;image-rendering:optimizeQuality;shape-rendering:geometricPrecision;text-rendering:geometricPrecision"
   id="svg94"
   xmlns="http://www.w3.org/2000/svg"
   xmlns:svg="http://www.w3.org/2000/svg">
  <defs
     id="defs98" />
  <g
     id="logo"
     transform="matrix(1.4559643,0,0,1.4559643,-684.94,-348.58786)">
    <g
       id="g4">
      <path
         style="opacity:0.995"
         fill="#131241"
         d="m 689.5,239.5 c 3.149,-0.289 6.149,0.211 9,1.5 61.322,59.113 102.156,130.279 122.5,213.5 5.43,25.401 7.43,51.068 6,77 -2.005,23.379 -4.005,46.712 -6,70 1.395,1.315 2.395,0.981 3,-1 3.167,-10.833 6.333,-21.667 9.5,-32.5 0.43,-1.434 1.264,-2.601 2.5,-3.5 24.487,31.642 48.487,63.642 72,96 0.826,19.907 0.659,39.74 -0.5,59.5 -32.332,0.5 -64.665,0.667 -97,0.5 -0.94,13.005 -1.94,26.005 -3,39 -22.333,0 -44.667,0 -67,0 -3.897,86.343 -8.064,172.676 -12.5,259 -2.527,4.88 -5.527,5.22 -9,1 -5.488,-145.014 -10.988,-290.014 -16.5,-435 -0.333,-0.667 -0.667,-1.333 -1,-2 -0.818,2.607 -1.318,5.274 -1.5,8 -5.267,108.003 -10.6,216.003 -16,324 -2.527,4.884 -5.527,5.217 -9,1 -2.583,-51.654 -4.916,-103.32 -7,-155 -7.079,-0.98 -14.245,-1.313 -21.5,-1 -1.713,41.335 -3.547,82.668 -5.5,124 -3.473,4.217 -6.473,3.884 -9,-1 -4.757,-40.979 -9.257,-81.979 -13.5,-123 -13.333,0 -26.667,0 -40,0 -1.276,-12.977 -2.276,-25.977 -3,-39 -35,0 -70,0 -105,0 -0.167,-20.336 0,-40.669 0.5,-61 25.653,-31.318 51.653,-62.318 78,-93 0.667,0.667 1.333,1.333 2,2 3.178,11.046 6.512,22.046 10,33 1.545,1.321 2.711,0.988 3.5,-1 -16.188,-85.188 -4.354,-166.188 35.5,-243 23.31,-44.288 53.143,-83.621 89.5,-118 z m -1,150 c 30.625,-0.031 47.625,15.136 51,45.5 -4.414,32.082 -22.748,46.749 -55,44 -27.13,-8.757 -38.63,-27.257 -34.5,-55.5 5.87,-19.378 18.703,-30.711 38.5,-34 z"
         id="path2" />
    </g>
    <g
       id="g8">
      <path
         style="opacity:0.961"
         fill="#131241"
         d="m 2136.5,259.5 c 6.34,-0.166 12.68,0 19,0.5 1.37,0.402 2.71,0.902 4,1.5 1.16,5.637 1.33,11.304 0.5,17 -10.73,-6.061 -20.73,-5.061 -30,3 -2.66,4.314 -4.33,8.981 -5,14 -0.5,9.994 -0.67,19.994 -0.5,30 10.67,0 21.33,0 32,0 0.3,5.262 -0.03,10.428 -1,15.5 -10.33,0.5 -20.66,0.666 -31,0.5 0.17,39.335 0,78.668 -0.5,118 -5.33,1.333 -10.67,1.333 -16,0 -0.5,-39.332 -0.67,-78.665 -0.5,-118 -7.34,0.166 -14.67,0 -22,-0.5 -1.33,-5 -1.33,-10 0,-15 7.33,-0.5 14.66,-0.666 22,-0.5 -0.17,-10.339 0,-20.672 0.5,-31 1.74,-18.218 11.24,-29.884 28.5,-35 z"
         id="path6" />
    </g>
    <g
       id="g12">
      <path
         style="opacity:0.851"
         fill="#131241"
         d="m 1075.5,260.5 c 2,0 4,0 6,0 0,157.333 0,314.667 0,472 -2.29,0.256 -4.46,-0.077 -6.5,-1 -0.83,-157.07 -0.67,-314.07 0.5,-471 z"
         id="path10" />
    </g>
    <g
       id="g16">
      <path
         style="opacity:0.964"
         fill="#131241"
         d="m 1461.5,268.5 c 12.68,-0.307 17.51,5.693 14.5,18 -5.08,6.493 -11.25,7.66 -18.5,3.5 -6.27,-8.71 -4.94,-15.877 4,-21.5 z"
         id="path14" />
    </g>
    <g
       id="g20">
      <path
         style="opacity:0.957"
         fill="#131241"
         d="m 1238.5,272.5 c 7.25,-0.313 14.42,0.02 21.5,1 22.6,52.302 45.1,104.635 67.5,157 21.89,-52.653 44.55,-104.987 68,-157 6.63,-0.997 13.3,-1.33 20,-1 0.17,62.334 0,124.668 -0.5,187 -5.67,1.333 -11.33,1.333 -17,0 -0.58,-51.676 -0.58,-103.342 0,-155 -21.55,51.996 -43.89,103.663 -67,155 -2.67,1.333 -5.33,1.333 -8,0 -20.39,-47.117 -41.06,-94.117 -62,-141 -1.67,-5 -3.33,-10 -5,-15 0.61,51.987 0.61,103.987 0,156 -5.67,1.333 -11.33,1.333 -17,0 -0.5,-62.332 -0.67,-124.666 -0.5,-187 z"
         id="path18" />
    </g>
    <g
       id="g24">
      <path
         style="opacity:0.96"
         fill="#131241"
         d="m 2200.5,286.5 c 0.62,0.111 1.12,0.444 1.5,1 0.5,12.662 0.67,25.329 0.5,38 10.67,-0.167 21.34,0 32,0.5 1.33,5 1.33,10 0,15 -10.66,0.5 -21.33,0.667 -32,0.5 -0.47,32.049 0.03,64.049 1.5,96 4.24,8.454 11.07,11.621 20.5,9.5 3.69,-1.182 7.35,-2.348 11,-3.5 0.17,4.679 0,9.345 -0.5,14 -5.54,3.761 -11.71,5.428 -18.5,5 -17.68,0.157 -27.84,-8.51 -30.5,-26 -0.5,-31.665 -0.67,-63.332 -0.5,-95 -7.34,0.166 -14.67,0 -22,-0.5 -0.97,-5.072 -1.3,-10.238 -1,-15.5 7.67,0 15.33,0 23,0 0,-11.333 0,-22.667 0,-34 5.28,-1.095 10.28,-2.761 15,-5 z"
         id="path22" />
    </g>
    <g
       id="g28">
      <path
         style="opacity:0.969"
         fill="#131241"
         d="m 1561.5,322.5 c 12.82,-0.919 25.15,1.081 37,6 1.16,6.307 1.33,12.641 0.5,19 -22.04,-14.051 -43.04,-12.718 -63,4 -15.52,21.995 -18.52,45.661 -9,71 10.08,19.958 26.25,28.125 48.5,24.5 8.77,-1.47 16.6,-4.97 23.5,-10.5 0.67,5.667 0.67,11.333 0,17 -23.84,13.831 -47.34,13.331 -70.5,-1.5 -16.64,-15.069 -24.64,-33.903 -24,-56.5 -0.9,-28.382 10.44,-50.215 34,-65.5 7.49,-3.442 15.16,-5.942 23,-7.5 z"
         id="path26" />
    </g>
    <g
       id="g32">
      <path
         style="opacity:0.973"
         fill="#131241"
         d="m 1756.5,322.5 c 39.79,-2.042 62.62,16.625 68.5,56 3.57,22.927 -1.09,43.927 -14,63 -20.05,20.814 -43.88,26.647 -71.5,17.5 -22.4,-10.25 -34.9,-27.75 -37.5,-52.5 -2.79,-20.599 0.88,-39.933 11,-58 10.8,-14.977 25.3,-23.644 43.5,-26 z m 6,15 c 28.97,1.468 44.13,16.802 45.5,46 1.79,16.149 -0.88,31.482 -8,46 -11.31,15.442 -26.47,21.276 -45.5,17.5 -15.46,-3.461 -25.96,-12.628 -31.5,-27.5 -7.68,-23.126 -5.35,-45.126 7,-66 8.64,-10.032 19.47,-15.365 32.5,-16 z"
         id="path30" />
    </g>
    <g
       id="g36">
      <path
         style="opacity:0.968"
         fill="#131241"
         d="m 1887.5,322.5 c 12.59,-0.958 24.59,1.209 36,6.5 1.14,6.084 1.31,12.251 0.5,18.5 -15.82,-10.461 -32.32,-11.961 -49.5,-4.5 -8.75,8.311 -10.25,17.811 -4.5,28.5 2.2,2.54 4.7,4.707 7.5,6.5 13.44,5.885 26.44,12.552 39,20 12.72,11.942 15.89,26.108 9.5,42.5 -4.6,8.565 -11.44,14.732 -20.5,18.5 -19.24,6.602 -37.91,5.269 -56,-4 -1.31,-6.444 -1.31,-12.944 0,-19.5 16.95,12.933 35.28,15.433 55,7.5 6.4,-6.21 8.57,-13.71 6.5,-22.5 -2.03,-5.364 -5.53,-9.531 -10.5,-12.5 -12.28,-5.473 -24.28,-11.473 -36,-18 -16.28,-13.891 -19.45,-30.391 -9.5,-49.5 8.67,-10.081 19.5,-16.081 32.5,-18 z"
         id="path34" />
    </g>
    <g
       id="g40">
      <path
         style="opacity:0.971"
         fill="#131241"
         d="m 2005.5,322.5 c 40.73,-1.772 63.56,17.561 68.5,58 2.64,20.78 -1.36,40.114 -12,58 -17.68,21.447 -40.18,28.947 -67.5,22.5 -20.4,-6.071 -33.9,-19.237 -40.5,-39.5 -7.8,-26.886 -4.47,-52.22 10,-76 10.95,-13.056 24.79,-20.723 41.5,-23 z m 5,15 c 26.38,-0.124 41.55,12.876 45.5,39 2.73,16.8 1.06,33.133 -5,49 -10.66,18.127 -26.5,25.294 -47.5,21.5 -17.37,-4.364 -28.53,-15.198 -33.5,-32.5 -4.8,-19.763 -2.8,-38.763 6,-57 8.36,-12.258 19.86,-18.925 34.5,-20 z"
         id="path38" />
    </g>
    <g
       id="g44">
      <path
         style="opacity:0.962"
         fill="#131241"
         d="m 1672.5,323.5 c 6.67,-0.457 13.17,0.209 19.5,2 0.67,6 0.67,12 0,18 -17.73,-8.088 -31.07,-3.422 -40,14 -4.22,9.551 -6.55,19.551 -7,30 -0.5,24.331 -0.67,48.664 -0.5,73 -5.59,0.307 -11.09,-0.027 -16.5,-1 -0.67,-44.333 -0.67,-88.667 0,-133 5.41,-0.973 10.91,-1.307 16.5,-1 -0.17,9.006 0,18.006 0.5,27 4.31,-14.472 13.48,-24.138 27.5,-29 z"
         id="path42" />
    </g>
    <g
       id="g48">
      <path
         style="opacity:0.963"
         fill="#131241"
         d="m 1457.5,325.5 c 5.33,0 10.67,0 16,0 0,45 0,90 0,135 -5.59,0.307 -11.09,-0.027 -16.5,-1 -0.83,-44.738 -0.66,-89.404 0.5,-134 z"
         id="path46" />
    </g>
    <g
       id="g52">
      <path
         style="opacity:0.975"
         fill="#131241"
         d="m 1708.5,531.5 c 13.67,-0.092 27,1.908 40,6 0.33,6.7 0,13.366 -1,20 -20.35,-10.747 -41.01,-11.581 -62,-2.5 -11.37,7.925 -15.54,18.758 -12.5,32.5 2.04,7.568 6.2,13.734 12.5,18.5 17,9.832 33.67,20.166 50,31 22.57,19.754 26.4,42.587 11.5,68.5 -9.78,11.602 -22.28,18.102 -37.5,19.5 -18.72,2.102 -36.72,-0.565 -54,-8 -0.5,-0.5 -1,-1 -1.5,-1.5 -0.67,-7 -0.67,-14 0,-21 18.9,13.647 39.73,17.813 62.5,12.5 16.77,-6.366 23.61,-18.532 20.5,-36.5 -1.49,-6.487 -4.66,-11.987 -9.5,-16.5 -15.47,-10.792 -31.47,-20.792 -48,-30 -24.31,-15.93 -31.14,-37.43 -20.5,-64.5 11.81,-17.649 28.31,-26.982 49.5,-28 z"
         id="path50" />
    </g>
    <g
       id="g56">
      <path
         style="opacity:0.965"
         fill="#131241"
         d="m 1238.5,535.5 c 29.67,0 59.33,0 89,0 0,5.333 0,10.667 0,16 -23.67,0 -47.33,0 -71,0 0,23.333 0,46.667 0,70 22,0 44,0 66,0 0,5.333 0,10.667 0,16 -22,0 -44,0 -66,0 0,28.333 0,56.667 0,85 -6,0 -12,0 -18,0 0,-62.333 0,-124.667 0,-187 z"
         id="path54" />
    </g>
    <g
       id="g60">
      <path
         style="opacity:0.972"
         fill="#131241"
         d="m 1809.5,549.5 c 1.98,12.624 2.65,25.624 2,39 11,0 22,0 33,0 0,5 0,10 0,15 -11,0 -22,0 -33,0 -0.46,32.041 0.04,64.041 1.5,96 1.73,6.393 5.89,9.893 12.5,10.5 6.72,0.789 12.89,-0.711 18.5,-4.5 0.83,5.364 0.66,10.698 -0.5,16 -11.28,5.112 -22.61,5.279 -34,0.5 -8.97,-5.656 -13.81,-13.823 -14.5,-24.5 -0.5,-31.332 -0.67,-62.665 -0.5,-94 -7.67,0 -15.33,0 -23,0 -0.3,-4.93 0.03,-9.763 1,-14.5 7.33,-0.5 14.66,-0.666 22,-0.5 0,-11.333 0,-22.667 0,-34 5.28,-1.095 10.28,-2.761 15,-5 z"
         id="path58" />
    </g>
    <g
       id="g64">
      <path
         style="opacity:0.973"
         fill="#131241"
         d="m 2109.5,549.5 c 1.98,12.624 2.65,25.624 2,39 11.01,-0.167 22.01,0 33,0.5 0.97,4.737 1.3,9.57 1,14.5 -11.33,0 -22.67,0 -34,0 -0.17,28.002 0,56.002 0.5,84 -1.17,15.83 6,23.33 21.5,22.5 3.95,-0.536 7.45,-2.036 10.5,-4.5 0.33,0.333 0.67,0.667 1,1 0.67,4.667 0.67,9.333 0,14 -13.46,7.066 -26.63,6.566 -39.5,-1.5 -7.24,-8.06 -10.74,-17.56 -10.5,-28.5 -0.5,-28.998 -0.67,-57.998 -0.5,-87 -7.33,0 -14.67,0 -22,0 0,-5 0,-10 0,-15 7.33,0 14.67,0 22,0 -0.17,-11.005 0,-22.005 0.5,-33 4.88,-2.119 9.71,-4.119 14.5,-6 z"
         id="path62" />
    </g>
    <g
       id="g68">
      <path
         style="opacity:0.975"
         fill="#131241"
         d="m 1401.5,585.5 c 40.32,-3.102 63.82,15.231 70.5,55 3.65,23.791 -1.35,45.458 -15,65 -17.54,18.015 -38.7,24.182 -63.5,18.5 -26.52,-8.53 -41.36,-26.697 -44.5,-54.5 -2.78,-20.635 0.88,-39.968 11,-58 10.34,-14.412 24.18,-23.079 41.5,-26 z m 4,15 c 30.57,-0.601 47.07,14.399 49.5,45 1.76,15.667 -0.57,30.667 -7,45 -10.73,16.37 -25.9,22.87 -45.5,19.5 -16.02,-3.021 -26.86,-12.188 -32.5,-27.5 -6.64,-20.394 -5.64,-40.394 3,-60 7.52,-12.375 18.36,-19.709 32.5,-22 z"
         id="path66" />
    </g>
    <g
       id="g72">
      <path
         style="opacity:0.966"
         fill="#131241"
         d="m 1552.5,585.5 c 5.01,0.309 9.84,1.309 14.5,3 0.67,6 0.67,12 0,18 -17.88,-8.482 -31.22,-3.816 -40,14 -4.25,10.235 -6.58,20.902 -7,32 -0.5,23.331 -0.67,46.664 -0.5,70 -5.67,0 -11.33,0 -17,0 -0.17,-44.335 0,-88.668 0.5,-133 5.41,-0.973 10.91,-1.307 16.5,-1 -0.17,9.006 0,18.006 0.5,27 5.04,-16.552 15.88,-26.552 32.5,-30 z"
         id="path70" />
    </g>
    <g
       id="g76">
      <path
         style="opacity:0.974"
         fill="#131241"
         d="m 1906.5,585.5 c 11.06,-1.026 21.72,0.474 32,4.5 12.86,8.208 19.69,20.041 20.5,35.5 0.5,32.332 0.67,64.665 0.5,97 -5.67,0 -11.33,0 -17,0 0.17,-7.341 0,-14.674 -0.5,-22 -13.53,22.627 -33.03,30.127 -58.5,22.5 -18.69,-9.003 -26.19,-23.837 -22.5,-44.5 1.89,-10.88 7.39,-19.38 16.5,-25.5 6.62,-3.652 13.62,-6.318 21,-8 14.64,-2.401 29.31,-4.568 44,-6.5 0.57,-30.942 -14.1,-42.776 -44,-35.5 -9.66,2.908 -18.16,7.741 -25.5,14.5 -0.67,-6.333 -0.67,-12.667 0,-19 10.3,-6.818 21.47,-11.151 33.5,-13 z m 31,68 c 1.67,0 3.33,0 5,0 1.96,15.043 -0.88,29.043 -8.5,42 -13.68,16.13 -29.84,19.296 -48.5,9.5 -9.22,-10.965 -10.38,-22.798 -3.5,-35.5 3.72,-4.051 8.22,-6.884 13.5,-8.5 14.08,-2.84 28.08,-5.34 42,-7.5 z"
         id="path74" />
    </g>
    <g
       id="g80">
      <path
         style="opacity:0.964"
         fill="#131241"
         d="m 2045.5,585.5 c 5.01,0.309 9.84,1.309 14.5,3 0.67,6 0.67,12 0,18 -19.01,-8.661 -32.67,-3.328 -41,16 -3.53,9.005 -5.53,18.339 -6,28 -0.5,23.998 -0.67,47.998 -0.5,72 -5.67,0 -11.33,0 -17,0 -0.17,-44.335 0,-88.668 0.5,-133 5.41,-0.973 10.91,-1.307 16.5,-1 -0.17,9.006 0,18.006 0.5,27 5.02,-16.525 15.85,-26.525 32.5,-30 z"
         id="path78" />
    </g>
    <g
       id="g84">
      <path
         style="opacity:0.972"
         fill="#131241"
         d="m 2363.5,585.5 c 30.38,-2.405 49.88,10.928 58.5,40 5.97,25.297 3.3,49.63 -8,73 -15.43,23.705 -36.93,31.872 -64.5,24.5 -10.05,-4.051 -17.55,-10.885 -22.5,-20.5 -0.33,27 -0.67,54 -1,81 -5.41,0.973 -10.91,1.307 -16.5,1 0,-65.333 0,-130.667 0,-196 5.67,0 11.33,0 17,0 -0.17,8.007 0,16.007 0.5,24 8.02,-14.747 20.19,-23.747 36.5,-27 z m 0,15 c 21.73,-0.888 35.56,9.112 41.5,30 5.58,22.93 2.58,44.597 -9,65 -11.87,14.344 -26.7,18.511 -44.5,12.5 -12.15,-5.481 -19.98,-14.648 -23.5,-27.5 -1.57,-13.619 -1.91,-27.286 -1,-41 3.49,-21.322 15.66,-34.322 36.5,-39 z"
         id="path82" />
    </g>
    <g
       id="g88">
      <path
         style="opacity:0.97"
         fill="#131241"
         d="m 2485.5,585.5 c 12.9,-1.341 25.23,0.659 37,6 1.16,6.307 1.33,12.641 0.5,19 -14.43,-9.919 -29.93,-12.085 -46.5,-6.5 -12.94,9.906 -14.27,21.24 -4,34 11.69,6.512 23.69,12.512 36,18 20.15,12.755 24.98,29.921 14.5,51.5 -7.62,10.066 -17.79,15.9 -30.5,17.5 -11.89,1.31 -23.56,0.31 -35,-3 -3.66,-1.002 -6.83,-2.836 -9.5,-5.5 -0.83,-6.028 -0.66,-12.028 0.5,-18 16.22,12.079 33.89,14.912 53,8.5 8.54,-6.035 11.38,-14.202 8.5,-24.5 -1.08,-2.496 -2.41,-4.83 -4,-7 -10.36,-7.266 -21.53,-13.099 -33.5,-17.5 -24.14,-12.755 -29.97,-31.255 -17.5,-55.5 8.28,-9.22 18.45,-14.886 30.5,-17 z"
         id="path86" />
    </g>
    <g
       id="g92">
      <path
         style="opacity:0.97"
         fill="#131241"
         d="m 2166.5,588.5 c 5.67,0 11.33,0 17,0 -0.17,29.002 0,58.002 0.5,87 1.78,27.787 16.28,38.953 43.5,33.5 12.4,-4.735 20.23,-13.569 23.5,-26.5 0.91,-4.295 1.58,-8.628 2,-13 0.5,-26.998 0.67,-53.998 0.5,-81 5.59,-0.307 11.09,0.027 16.5,1 0.5,44.332 0.67,88.665 0.5,133 -5.67,0 -11.33,0 -17,0 0.17,-7.341 0,-14.674 -0.5,-22 -13.28,22.991 -32.78,30.491 -58.5,22.5 -11.54,-4.54 -19.37,-12.706 -23.5,-24.5 -1.97,-6.196 -3.31,-12.529 -4,-19 -0.5,-30.332 -0.67,-60.665 -0.5,-91 z"
         id="path90" />
    </g>
  </g>
</svg>
